<svg id="圖層_1" data-name="圖層 1" xmlns="http://www.w3.org/2000/svg" viewBox="0 0 453.54 453.54"><defs><style>.cls-1{fill:#9ccfd6;}.cls-2{fill:#eaeaea;}</style></defs><path class="cls-1" d="M28.35,0H425.2c0,.79,0,1.57-.1,2.36-.42,4.86-.87,9.72-1.3,14.58q-1.23,13.89-2.45,27.77Q420,60,418.64,75.18,417.41,89.07,416.2,103q-1.35,15.24-2.72,30.47-1.23,13.89-2.44,27.77l-2.49,27.88q-1.23,13.89-2.45,27.77-1.34,15.16-2.7,30.35t-2.68,30.47q-1.35,15.24-2.72,30.47t-2.67,30.36q-1.47,16.53-2.95,33.06-1.58,17.76-3.11,35.53a1.54,1.54,0,0,1-1.32,1.61c-7.46,2.05-14.91,4.16-22.36,6.24Q297,434.1,228.37,453.28a6.44,6.44,0,0,1-3.64,0Q145.35,431,66,408.87a2,2,0,0,1-1.76-2.14c-.34-4.79-.81-9.57-1.23-14.36q-1.24-13.94-2.48-27.88T58,336.72q-1.23-14-2.48-28-1.21-13.82-2.44-27.65-1.23-14-2.48-28L48.41,228q-1.23-13.94-2.47-27.88t-2.48-28Q42.23,158.24,41,144.36,39.9,131.83,38.8,119.3q-1.24-13.93-2.48-27.88T33.87,63.65q-1.23-14-2.48-28c-.74-8.39-1.5-16.78-2.23-25.18C28.86,7,28.62,3.49,28.35,0ZM226.76,184.78c-.7,0-1.4.06-2.1.06H113.91c-.51,0-1,0-1.52,0-1-.08-1.34.29-1.23,1.29.23,2,.37,3.92.54,5.88q1.36,15.28,2.73,30.57c.37,4.11.78,8.22,1.17,12.33.81.08,1.62.23,2.43.23q53,0,106.08,0c2.66,0,2.66,0,2.66,2.67q0,38.51,0,77l-.24.21-6-1.67q-24-6.54-48.09-13.06a1.61,1.61,0,0,1-1.41-1.66c-.39-4.86-.85-9.72-1.28-14.59-.66-7.52-1.35-15.05-2-22.58-.09-1.13-.43-1.52-1.62-1.52q-23.51.06-47,0c-1.08,0-1.41.28-1.3,1.42.9,9.76,1.75,19.52,2.61,29.28q2,23.18,4.06,46.35a2,2,0,0,0,1.7,2.09q33.11,9.18,66.18,18.47l33.87,9.5a13.61,13.61,0,0,1,.46,2.49q0,23.81,0,47.62c0,1.69.17,1.81,1.76,1.37l10.17-2.83,94.8-26.49Q345,386,356.55,382.82c1-.28,1.68-.71,1.78-1.87.53-6.2,1.1-12.39,1.64-18.58.82-9.33,1.61-18.67,2.43-28,.9-10.11,1.83-20.22,2.73-30.34.82-9.25,1.61-18.51,2.43-27.76q1.37-15.52,2.76-31l1.8-20.11,1.47-16.58q.89-10.11,1.78-20.23.86-9.77,1.74-19.52.88-10.07,1.76-20.12,1-11.06,2-22.11c.67-7.6,1.31-15.21,2-22.82.65-7.44,1.34-14.89,2-22.34s1.31-15,2-22.47c.67-7.64,1.34-15.29,2.06-22.93.22-2.4.59-2.68-2.57-2.67H229.53c-.43,0-.86,0-1.29,0-1.05,0-1.51.47-1.47,1.5,0,.47,0,1,0,1.42V83.39c-.75,0-1.49.08-2.23.08H104.34c-2.28,0-2.24,0-2,2.29.92,10,1.81,20.08,2.73,30.12.53,5.88,1.09,11.76,1.64,17.64.84.08,1.69.24,2.54.24H224.37c2.38,0,2.4,0,2.4,2.45Q226.77,160.51,226.76,184.78Z"/><path class="cls-1" d="M226.77,83.39V36.25c0-.47,0-1,0-1.42,0-1,.42-1.55,1.47-1.5.43,0,.86,0,1.29,0H386.3c3.16,0,2.79.27,2.57,2.67-.72,7.64-1.39,15.29-2.06,22.93-.66,7.49-1.3,15-2,22.47s-1.35,14.9-2,22.34c-.68,7.61-1.32,15.22-2,22.82q-1,11.07-2,22.11-.89,10.07-1.76,20.12-.87,9.75-1.74,19.52-.9,10.11-1.78,20.23l-1.47,16.58-1.8,20.11q-1.38,15.53-2.76,31c-.82,9.25-1.61,18.51-2.43,27.76-.9,10.12-1.83,20.23-2.73,30.34-.82,9.33-1.61,18.67-2.43,28-.54,6.19-1.11,12.38-1.64,18.58-.1,1.16-.78,1.59-1.78,1.87Q345,386,333.5,389.24l-94.8,26.49-10.17,2.83c-1.59.44-1.76.32-1.76-1.37q0-23.82,0-47.62a13.61,13.61,0,0,0-.46-2.49l.25-.07c.42-.08.85-.12,1.26-.24l40.66-11.34q29.25-8.18,58.51-16.32c1.07-.3,1.59-.69,1.69-1.94.48-6.32,1.09-12.63,1.65-18.94q1.23-13.94,2.47-27.88l2.49-28q1.23-13.89,2.45-27.77l2.46-27.76q1.23-13.7,2.45-27.4,1.23-13.89,2.45-27.77l2.49-28q1.23-13.94,2.46-27.88c.36-4,.68-8.08,1-12.12a20.26,20.26,0,0,0-2.06-.22H229C228.25,83.44,227.51,83.41,226.77,83.39Z"/><path class="cls-2" d="M226.54,315v52l-.25.07-33.87-9.5q-33.07-9.25-66.18-18.47a2,2,0,0,1-1.7-2.09q-2-23.17-4.06-46.35c-.86-9.76-1.71-19.52-2.61-29.28-.11-1.14.22-1.42,1.3-1.42q23.51,0,47,0c1.19,0,1.53.39,1.62,1.52.63,7.53,1.32,15.06,2,22.58.43,4.87.89,9.73,1.28,14.59a1.61,1.61,0,0,0,1.41,1.66q24,6.49,48.09,13.06Z"/><path class="cls-2" d="M351,83.67H229.27c-2.73,0-2.73,0-2.73,2.71V133.5c-.7,0-1.4,0-2.1,0H108.56l-1.87,0c-.55-5.88-1.11-11.76-1.64-17.64-.92-10-1.81-20.08-2.73-30.12-.22-2.29-.26-2.29,2-2.29h120.2c.74,0,1.48,0,2.23-.08s1.48,0,2.22,0H349A20.26,20.26,0,0,1,351,83.67Z"/><path class="cls-2" d="M292.17,184.75a18.07,18.07,0,0,1-2.3.29q-30.4,0-60.83,0c-2.5,0-2.5,0-2.5,2.46v47.36c-.39,0-.78,0-1.17,0H115.6c-.39-4.11-.8-8.22-1.17-12.33q-1.38-15.29-2.73-30.57c-.17-2-.31-3.92-.54-5.88-.11-1,.26-1.37,1.23-1.29.5,0,1,0,1.52,0H224.66c.7,0,1.4,0,2.1-.06.39,0,.78,0,1.17,0h62.84C291.23,184.82,291.7,184.77,292.17,184.75Z"/><path class="cls-1" d="M115.6,234.91H225.37c.39,0,.78,0,1.17,0,.67,0,1.33.05,2,.05H286c1.87,0,1.84,0,1.66,1.93q-1.26,13.94-2.48,27.87T282.7,292.5c-.18,2-.44,4-.52,6a1.69,1.69,0,0,1-1.52,1.83q-18.39,4.95-36.78,10l-15.73,4.28c-.45.12-.91.16-1.37.25q0-38.5,0-77c0-2.66,0-2.66-2.66-2.67q-53,0-106.08,0C117.22,235.14,116.41,235,115.6,234.91Z"/><path class="cls-1" d="M292.17,184.75c-.47,0-.94.07-1.4.07H227.93c-.39,0-.78,0-1.17,0q0-24.28,0-48.56c0-2.43,0-2.45-2.4-2.45H109.23c-.85,0-1.7-.16-2.54-.24l1.87,0H224.44c.7,0,1.4,0,2.1,0s1.33.06,2,.06h65.79c.43,0,.86,0,1.29,0,.77,0,1,.28.95,1.06q-.72,7.95-1.4,15.89-1.25,14-2.48,28C292.5,180.59,292.34,182.67,292.17,184.75Z"/></svg>