<?xml version="1.0" encoding="utf-8"?>
<!-- Generator: Adobe Illustrator 25.0.0, SVG Export Plug-In . SVG Version: 6.00 Build 0)  -->
<svg version="1.1" id="圖層_1" xmlns="http://www.w3.org/2000/svg" xmlns:xlink="http://www.w3.org/1999/xlink" x="0px" y="0px"
	 viewBox="0 0 16 16" style="enable-background:new 0 0 16 16;" xml:space="preserve">
<style type="text/css">
	.st0{fill:#FFFFFF;}
</style>
<g>
	<g>
		<g>
			<g>
				<path class="st0" d="M5.8,4.6c0.3,0,0.6,0,0.9,0.1C7,4.7,7.2,4.8,7.4,4.9c0.2,0.1,0.3,0.3,0.4,0.5C7.9,5.7,8,5.9,8,6.2
					c0,0.3-0.1,0.6-0.2,0.8C7.6,7.3,7.4,7.5,7.1,7.6C7.5,7.8,7.8,8,8,8.3c0.2,0.3,0.3,0.7,0.3,1.1c0,0.3-0.1,0.6-0.2,0.9
					c-0.1,0.2-0.3,0.5-0.5,0.6c-0.2,0.2-0.5,0.3-0.8,0.3c-0.3,0.1-0.6,0.1-0.9,0.1H2.7V4.6H5.8z M5.6,7.3c0.3,0,0.5-0.1,0.6-0.2
					C6.5,7,6.5,6.8,6.5,6.5c0-0.2,0-0.3-0.1-0.4C6.4,6,6.3,5.9,6.2,5.9C6.1,5.8,6,5.8,5.9,5.8c-0.1,0-0.2,0-0.4,0H4.1v1.6H5.6z
					 M5.7,10.1c0.1,0,0.3,0,0.4,0c0.1,0,0.2-0.1,0.3-0.1c0.1-0.1,0.2-0.2,0.2-0.3c0.1-0.1,0.1-0.3,0.1-0.4c0-0.3-0.1-0.6-0.3-0.7
					C6.3,8.4,6.1,8.3,5.8,8.3H4.1v1.8H5.7z"/>
				<path class="st0" d="M10.4,10.1c0.2,0.2,0.5,0.3,0.9,0.3c0.3,0,0.5-0.1,0.7-0.2c0.2-0.1,0.3-0.3,0.4-0.4h1.2
					c-0.2,0.6-0.5,1-0.9,1.3c-0.4,0.3-0.9,0.4-1.4,0.4c-0.4,0-0.7-0.1-1-0.2c-0.3-0.1-0.6-0.3-0.8-0.5C9.2,10.5,9,10.2,8.9,9.9
					c-0.1-0.3-0.2-0.7-0.2-1c0-0.4,0.1-0.7,0.2-1C9,7.5,9.2,7.3,9.4,7c0.2-0.2,0.5-0.4,0.8-0.5c0.3-0.1,0.6-0.2,1-0.2
					c0.4,0,0.8,0.1,1.1,0.2c0.3,0.2,0.6,0.4,0.8,0.6c0.2,0.3,0.3,0.6,0.4,0.9c0.1,0.3,0.1,0.7,0.1,1.1h-3.5
					C10.1,9.6,10.2,9.9,10.4,10.1z M11.9,7.6c-0.2-0.2-0.4-0.3-0.8-0.3c-0.2,0-0.4,0-0.5,0.1c-0.1,0.1-0.3,0.2-0.3,0.3
					c-0.1,0.1-0.1,0.2-0.2,0.3c0,0.1-0.1,0.2-0.1,0.3h2.2C12.2,8,12.1,7.8,11.9,7.6z"/>
				<rect x="9.8" y="5" class="st0" width="2.7" height="0.7"/>
			</g>
		</g>
	</g>
</g>
</svg>
