<?xml version="1.0" encoding="utf-8"?>
<!-- Generator: Adobe Illustrator 25.0.0, SVG Export Plug-In . SVG Version: 6.00 Build 0)  -->
<svg version="1.1" id="圖層_1" xmlns="http://www.w3.org/2000/svg" xmlns:xlink="http://www.w3.org/1999/xlink" x="0px" y="0px"
	 viewBox="0 0 16 16" style="enable-background:new 0 0 16 16;" xml:space="preserve">
<style type="text/css">
	.st0{fill:#FDFDFD;}
</style>
<g>
	<g>
		<g>
			<path class="st0" d="M8.6,6.9C8.7,6.8,8.9,6.6,9,6.5c0.4-0.4,0.9-0.6,1.5-0.6c0.3,0,0.6,0,0.9,0.1c0.7,0.2,1.1,0.7,1.3,1.4
				c0.1,0.5,0.2,1,0.2,1.6c0,1.1,0,2.2,0,3.3c0,0.1,0,0.1-0.1,0.1c-0.6,0-1.1,0-1.7,0c-0.1,0-0.1,0-0.1-0.1c0-1.1,0-2.1,0-3.2
				c0-0.3,0-0.5-0.1-0.8c-0.1-0.5-0.5-0.7-1-0.7c-0.7,0-1,0.4-1.1,1.1c0,0.2,0,0.3,0,0.5c0,1,0,2,0,3.1c0,0.1,0,0.1-0.1,0.1
				c-0.6,0-1.1,0-1.7,0c-0.1,0-0.1,0-0.1-0.1c0-2,0-4,0-6.1c0-0.1,0-0.1,0.1-0.1c0.5,0,1.1,0,1.6,0c0.1,0,0.1,0,0.1,0.1
				C8.6,6.4,8.6,6.7,8.6,6.9z"/>
			<path class="st0" d="M5.5,9.2c0,1,0,2,0,3c0,0.1,0,0.1-0.1,0.1c-0.6,0-1.1,0-1.7,0c-0.1,0-0.1,0-0.1-0.1c0-2,0-4.1,0-6.1
				c0-0.1,0-0.1,0.1-0.1c0.6,0,1.2,0,1.7,0c0.1,0,0.1,0,0.1,0.1C5.5,7.2,5.5,8.2,5.5,9.2z"/>
			<path class="st0" d="M5.7,4c0,0.6-0.5,1.1-1.1,1.1c-0.6,0-1.1-0.5-1.1-1.1c0-0.6,0.5-1.1,1.1-1.1C5.1,2.9,5.7,3.4,5.7,4z"/>
		</g>
	</g>
</g>
</svg>
