<svg id="圖層_1" data-name="圖層 1" xmlns="http://www.w3.org/2000/svg" viewBox="0 0 453.54 453.54"><defs><style>.cls-1{fill:#9ccfd6;}</style></defs><path class="cls-1" d="M325.57,28.35c2.1.56,4.23,1,6.31,1.71C344.73,34.2,353.39,42.87,359,54.69c5,10.45,6.77,21.6,7.4,33,1.06,19.31-2,38.15-6.17,56.89-.36,1.6-.64,3.22-1.14,4.77-.59,1.82,0,2.6,1.83,3.22C371,156,381.17,159.14,391.05,163c14.14,5.54,27.48,12.65,39.28,22.27,8.54,6.95,15.71,15,19.88,25.26,5.66,13.91,4,27.22-3.93,39.84-7.51,12-18.45,20.46-30.48,27.67-16.57,9.92-34.52,16.66-53,22.09l-.66.17c-3.62,1-3.58,1-2.74,4.53,3.65,15.42,6.38,30.94,7.09,46.81.62,13.85-.38,27.45-4.88,40.63-3.8,11.15-10.2,20.51-20.59,26.81a42.73,42.73,0,0,1-19.91,5.9c-17.29,1.12-32.49-4.79-47.08-12.85a205.07,205.07,0,0,1-36.6-26.44c-3-2.64-6-5.2-8.86-7.95-1.35-1.29-2.17-1.24-3.51,0-11.6,10.87-23.82,21-37.33,29.54-12.93,8.16-26.47,15.21-41.88,17.21-13.52,1.74-26.74.62-37.89-8.61C99.56,409,94.32,400.11,91.19,390a101.56,101.56,0,0,1-4-23.87c-1.15-19.23,1.87-38,6-56.69.4-1.81.74-3.65,1.31-5.41.63-1.91.09-2.85-1.9-3.4-4.28-1.18-8.55-2.46-12.76-3.88C63.9,291.33,48.46,285,34.33,275.9c-10.58-6.79-20.23-14.59-26.91-25.35-9.9-16-9.91-32,.06-48,7.48-11.94,18.44-20.27,30.39-27.45,16.49-9.9,34.4-16.54,52.82-22,.79-.24,1.58-.5,2.39-.69,1.47-.36,1.86-1.17,1.49-2.64a252.72,252.72,0,0,1-7.15-41.66c-1.32-16-.71-31.89,4.59-47.29,3.84-11.16,10.2-20.59,20.7-26.68,3.71-2.16,8-3.37,12-5a29.51,29.51,0,0,1,3.26-.88h17.67c1.09.28,2.18.55,3.26.86,4.7,1.36,9.5,2.44,14.06,4.14,16,6,29.95,15.28,43.12,25.78,6.6,5.27,12.83,11,19.16,16.59,1.16,1,1.92,1.1,3,0s2.59-2.27,3.84-3.44a232.43,232.43,0,0,1,34-26.48c10.7-6.8,22-12.41,34.33-15.67,2.47-.65,5-1.19,7.46-1.78Zm-100,126.29c-11.78.49-25,1-38.14,1.68a4.57,4.57,0,0,0-3,1.91,533,533,0,0,0-39.13,66.43,3.85,3.85,0,0,0,0,4c5,9.31,9.63,18.85,15,27.94,7.77,13.07,16.07,25.83,24.23,38.67a3.94,3.94,0,0,0,2.63,1.69c9.93.56,19.88,1.38,29.82,1.32,16-.09,32-.82,47.95-1.17a5.06,5.06,0,0,0,4.6-2.46,558.59,558.59,0,0,0,38.59-65.72,4.42,4.42,0,0,0,0-4.56C302.39,213.79,297.08,203,291,192.7c-7-11.87-14.69-23.36-22.16-35a4.07,4.07,0,0,0-2.55-1.44,51.09,51.09,0,0,0-6.31-.48C249,155.42,238,155.06,225.52,154.64ZM433.85,228a27.14,27.14,0,0,0-3.94-14.34c-4.2-6.88-10.09-12.14-16.58-16.84a128.6,128.6,0,0,0-28.72-15.47c-9.67-3.78-19.62-6.87-29.43-10.28-1.59-.55-2.39,0-2.79,1.54a37.9,37.9,0,0,1-1.52,4.89c-6.31,15.82-12.69,31.61-19,47.44a4.69,4.69,0,0,0,0,3.3c7.68,17,14.86,34.28,20.4,52.13.59,1.87,1.43,2.24,3.28,1.69,15.37-4.53,30.39-9.9,44.51-17.47,10.06-5.4,19.47-11.67,26.73-20.6C430.91,239,433.62,233.34,433.85,228ZM106.53,95.43c.2,3.47.37,6.95.59,10.42.85,13.22,3.4,26.17,6.46,39,.41,1.69,1.26,2.13,2.93,1.72,2.42-.59,4.85-1.13,7.31-1.49q24.27-3.6,48.54-7a5.13,5.13,0,0,0,3.83-2.28A457.87,457.87,0,0,1,211.5,92.69c1.31-1.41.89-2.18-.26-3.27a213.18,213.18,0,0,0-36.75-28.76c-9.93-6-20.3-11.17-32-12.93-6.86-1-13.54-.68-19.68,3s-9.36,9.13-11.7,15.37C107.53,75.55,106.52,85.4,106.53,95.43Zm.08,264c.13,2.23.24,6.08.57,9.92.74,8.66,2.67,17,7.17,24.61,5,8.44,12.79,12.23,22.44,12.11a55.16,55.16,0,0,0,21-4.92c20.59-8.82,37.71-22.44,53.74-37.58,1.15-1.09,1-1.85,0-3-2.72-2.87-5.47-5.74-8-8.81-9.36-11.63-18.59-23.35-27.94-35a4.4,4.4,0,0,0-2.56-1.46c-3-.46-6.16-.55-9.21-1-14.89-2.33-29.79-4.58-44.63-7.18-6.24-1.09-5.07-.85-6.24,4A209.93,209.93,0,0,0,106.61,359.4ZM19.7,226.49a26.3,26.3,0,0,0,3.88,12.94c4.16,6.91,10,12.26,16.54,16.87,17.68,12.47,37.74,19.77,58.34,25.89,1.45.43,2.19.07,2.66-1.42a464.29,464.29,0,0,1,20.58-52.54,4.18,4.18,0,0,0,.06-3.09c-7.75-17.1-14.91-34.42-20.51-52.33-.53-1.72-1.28-2.22-3.09-1.69-15.58,4.6-30.82,10-45.11,17.76-9.85,5.32-19,11.49-26.18,20.23C22.71,214.22,20,219.89,19.7,226.49ZM347.05,357.87q-.3-5-.59-10c-.76-13.39-3.38-26.48-6.46-39.5-.4-1.68-1.23-2.17-2.92-1.75-2.41.6-4.85,1.16-7.31,1.52q-24.39,3.59-48.79,7a4.68,4.68,0,0,0-3.47,2.09,462.55,462.55,0,0,1-35,42.81c-1.62,1.75-1.37,2.62.19,4.1a222,222,0,0,0,36.1,28.2c9.05,5.59,18.57,10.27,29.11,12.54,6.43,1.39,12.86,1.74,19.16-.61,8.17-3,12.53-9.49,15.42-17.1C346.06,377.77,347.05,367.9,347.05,357.87ZM347,93.49c-.12-2.18-.22-6-.58-9.88-.8-8.34-2.63-16.42-6.86-23.81-5-8.76-12.9-12.77-22.85-12.59-8.25.15-16.06,2.56-23.51,6-19.38,8.95-35.75,22-51.07,36.45-1.11,1-1.17,1.81-.08,3,2.73,2.87,5.48,5.73,8,8.81,9.36,11.63,18.6,23.36,28,35a4.76,4.76,0,0,0,2.78,1.49c3.13.49,6.31.59,9.43,1.09q23.46,3.72,46.88,7.61c1.7.29,2.49-.06,2.91-1.73C344,128.54,346.79,112,347,93.49Zm-94.29,42.43a8.48,8.48,0,0,0-.72-1.36Q240.31,120.79,228.67,107c-1.36-1.61-2.44-1.57-3.78,0q-11.61,13.8-23.27,27.55a5,5,0,0,0-.56,1.34Zm-51.83,181.4a11,11,0,0,0,.72,1.28q11.64,13.77,23.27,27.56c1.43,1.69,2.54,1.62,3.94,0,6.25-7.33,12.58-14.59,18.83-21.93,1.8-2.12,3.42-4.4,5.34-6.88Zm93-158.36,26,44.3c.56-1.21,1.12-2.23,1.53-3.31q5.83-15.55,11.61-31.11c1.08-2.94,1-3.14-2.06-3.7-9.26-1.7-18.54-3.31-27.82-4.9C300.09,159.73,297.05,159.4,293.81,159Zm.2,135,.19.72q18.87-3.39,37.75-6.76c1.62-.29,1.88-1.17,1.35-2.57Q327,268.63,320.76,252a16.67,16.67,0,0,0-1-1.86ZM133.71,203.3c8.78-15,17.33-29.49,25.91-44.08a2.1,2.1,0,0,0-.56-.11q-18.5,3.07-37,6.14c-2.07.34-2.36,1.31-1.68,3.11,3.79,10.08,7.5,20.18,11.28,30.27C132.24,200.13,133,201.58,133.71,203.3Zm.06,46.75c-.41.8-.77,1.37-1,2-4.16,11.06-8.29,22.15-12.48,33.2-.76,2,.34,2.48,2,2.77,8.46,1.51,16.91,3.09,25.39,4.55,4,.68,8,1.12,12.13,1.7Z"/><path class="cls-1" d="M226.8,266.28c-22.48,0-40.36-17.64-40.35-39.81,0-21.95,18-39.52,40.44-39.51a39.79,39.79,0,0,1,40.23,39.92C267.1,248.65,249.06,266.28,226.8,266.28Z"/></svg>