<svg id="圖層_1" data-name="圖層 1" xmlns="http://www.w3.org/2000/svg" xmlns:xlink="http://www.w3.org/1999/xlink" viewBox="0 0 240.94 240.94"><defs><style>.cls-1{fill:none;}.cls-2{clip-path:url(#clip-path);}.cls-3{fill:#eddccf;}.cls-4{fill:#fff;}</style><clipPath id="clip-path"><rect class="cls-1" width="240.94" height="240.94"/></clipPath></defs><g class="cls-2"><path class="cls-3" d="M42.67,0H198.28a41.57,41.57,0,0,1,16.33,3.32,42.51,42.51,0,0,1,13.85,9.49A43.79,43.79,0,0,1,237.71,27a44.61,44.61,0,0,1,3.23,16.75V197.18a44.66,44.66,0,0,1-3.23,16.76,43.89,43.89,0,0,1-9.25,14.2,42.67,42.67,0,0,1-13.85,9.49,41.74,41.74,0,0,1-16.33,3.31H42.67a41.75,41.75,0,0,1-16.34-3.31,42.63,42.63,0,0,1-13.84-9.49,43.73,43.73,0,0,1-9.25-14.2A44.48,44.48,0,0,1,0,197.18V43.76A44.43,44.43,0,0,1,3.24,27a43.62,43.62,0,0,1,9.25-14.2A42.47,42.47,0,0,1,26.33,3.32,41.58,41.58,0,0,1,42.67,0Z"/><path class="cls-4" d="M126.7,63.33l-30.12,51,32.12,54.06a1.79,1.79,0,0,1,.21,1.24c-.1.41-.51.1-1.11.2h-23c-1.61,0-2.71-.1-3.41-1.13-2.11-4.32-4.32-8.54-6.43-12.87s-4.41-8.55-6.82-13-4.82-8.86-7.23-13.39h-.2c-2.11,4.43-4.42,8.86-6.73,13.28s-4.62,8.86-6.83,13.18-4.61,8.76-6.92,13c-.41,1-1.21,1.13-2.31,1.13H35.84c-.4,0-.7.21-.7-.31a1.46,1.46,0,0,1,0-.59,1.5,1.5,0,0,1,.22-.54L66.56,116,36.14,63.22c-.3-.41-.4-.82-.2-1a1.22,1.22,0,0,1,.45-.33,1.17,1.17,0,0,1,.55-.08H59.73a5.59,5.59,0,0,1,1.41.21,2.85,2.85,0,0,1,1,.92c1.91,4.43,4.12,8.86,6.43,13.29S73.29,85,75.8,89.27s4.62,8.65,6.72,13.08h.2c2.11-4.53,4.32-9,6.53-13.28s4.52-8.65,6.83-13,4.51-8.75,6.72-13a1.74,1.74,0,0,1,.61-1,1.85,1.85,0,0,1,1.3-.21h21.18a1.15,1.15,0,0,1,.37,0,1.06,1.06,0,0,1,.33.14.92.92,0,0,1,.26.26,1,1,0,0,1,.15.33C127.1,62.71,126.9,63.12,126.7,63.33Z"/><path class="cls-4" d="M173.08,172a48.91,48.91,0,0,1-21.59-4.64,35.37,35.37,0,0,1-15.16-14c-3.71-6.28-5.52-14.11-5.52-23.48a43.19,43.19,0,0,1,5.52-21.72,42.13,42.13,0,0,1,16-16c7-4,15.46-6,25.4-6a18.64,18.64,0,0,1,2.11.11c.9.1,1.9.1,3.11.2V54c0-.73.3-1.14,1-1.14H204.3a.91.91,0,0,1,.64.16,1,1,0,0,1,.37.56v98.23c0,1.86.1,3.92.2,6.18s.3,4.22.4,6a1.71,1.71,0,0,1-.25,1,1.58,1.58,0,0,1-.76.66,74.54,74.54,0,0,1-16.36,4.94A86.28,86.28,0,0,1,173.08,172Zm9.84-20.6v-45.3a25.38,25.38,0,0,0-2.71-.52c-1.11-.1-2.21-.2-3.32-.2A24.23,24.23,0,0,0,165.55,108a22.73,22.73,0,0,0-8.53,7.62c-2.21,3.3-3.32,7.73-3.32,13.08a29.48,29.48,0,0,0,1.71,10.61,20.22,20.22,0,0,0,4.52,7.31,17.35,17.35,0,0,0,6.82,4.12,25.72,25.72,0,0,0,8.34,1.33c1.5,0,2.91-.1,4.21-.2A8.6,8.6,0,0,0,182.92,151.36Z"/></g></svg>