<svg id="圖層_1" data-name="圖層 1" xmlns="http://www.w3.org/2000/svg" viewBox="0 0 453.54 453.54"><defs><style>.cls-1{fill:#ff8864;}.cls-2{fill:#eaeaea;}</style></defs><path class="cls-1" d="M28.35,0H425.2c-.84,13-1.44,25.94-2.57,38.88Q413.44,144,404,249.16c-4.51,50.65-9.13,101.29-13.48,152-.48,5.62-2.66,7.94-8.1,9.45-50.1,13.93-100.08,28.27-150.16,42.26a21.41,21.41,0,0,1-11,0C172,439,122.94,424.78,73.67,411.15c-7.25-2-9.61-5.31-10.22-12.67C58.25,336,52.65,273.59,47.12,211.15Q37.78,105.58,28.35,0ZM227.63,314.14c-17.6-4.38-35.26-8.59-52.76-13.4-1.84-.5-3.57-4.37-3.94-6.89-1.23-8.46-2.07-17-2.56-25.55-.34-5.81-2.52-8.47-8.58-8.32-11.15.29-22.31.19-33.46,0-6.16-.08-8.08,2.48-7.51,8.69q2.85,30.89,4.81,61.85c.4,6.28,2.73,9.19,9,10.86,31.75,8.51,63.36,17.55,95,26.4,0,13-.06,26,.08,39.05.12,10.56,1.37,11.58,11.39,8.83,36.86-10.1,73.66-20.42,110.54-30.44,7.06-1.92,10-5.9,10.41-13.2.89-15.35,2.39-30.65,3.74-46Q376.32,184.75,389,43.41c.76-8.33-2.2-11.42-10.09-11.41q-70.1.12-140.18,0c-7.82,0-11.22,3.43-11.11,11.26.18,13.31,0,26.63,0,39.94l-1.68.61c-38.71-.11-77.42-.09-116.13-.43-7-.06-7.44,3.49-6.92,8.91,2,21.44,4,42.9,5.8,64.37,2.13,25.57,4,51.16,6,76.74,4.78,1,9.55,2.74,14.34,2.79,28.7.27,57.4.08,86.1.19,10.63,0,12.34,1.74,12.41,12.33C227.72,270.5,227.63,292.32,227.63,314.14Z"/><path class="cls-1" d="M227.62,83.18c0-13.31.21-26.63,0-39.94C227.54,35.41,230.94,32,238.76,32q70.1.17,140.18,0c7.89,0,10.85,3.08,10.09,11.41q-12.86,141.32-25.25,282.68c-1.35,15.32-2.85,30.62-3.74,46-.42,7.3-3.35,11.28-10.41,13.2-36.88,10-73.68,20.34-110.54,30.44-10,2.75-11.27,1.73-11.39-8.83-.14-13-.06-26-.08-39.05l3.71-2c30.58-8.36,61.21-16.54,91.66-25.35,2.85-.83,6.27-5.44,6.57-8.57,4.48-46.47,8.49-93,12.54-139.48.2-2.22-.28-4.5-.53-8.06H227.62V133.44c2.35-.09,4.69-.26,7-.26,34.63,0,69.26-.16,103.88.1,6.52.05,9.5-1.62,9.79-8.67.43-10.31,1.6-20.61,3-30.84,1.12-8.33-2.09-10.54-10.13-10.48C303.32,83.57,265.47,83.27,227.62,83.18Z"/><path class="cls-2" d="M114.74,233.38c-2-25.58-3.92-51.17-6-76.74-1.79-21.47-3.77-42.93-5.8-64.37-.52-5.42-.13-9,6.92-8.91,38.71.34,77.42.32,116.13.43v49H157.16c1.31,15.9,2.67,29.64,3.46,43.41.36,6.34,2.76,8.61,9.16,8.53,18.72-.24,37.44.11,56.16.22q0,24.73-.07,49.46-52.16.18-104.31.28C119.29,234.74,117,233.85,114.74,233.38Z"/><path class="cls-2" d="M231.33,365.85l-3.71,2c-31.66-8.85-63.27-17.89-95-26.4-6.24-1.67-8.57-4.58-9-10.86q-2-31-4.81-61.85c-.57-6.21,1.35-8.77,7.51-8.69,11.15.15,22.31.25,33.46,0,6.06-.15,8.24,2.51,8.58,8.32.49,8.54,1.33,17.09,2.56,25.55.37,2.52,2.1,6.39,3.94,6.89,17.5,4.81,35.16,9,52.76,13.4l1.75.48c-6.21,15.58-3.91,31.46-1.37,47.29C228.24,363.36,230.18,364.54,231.33,365.85Z"/><path class="cls-1" d="M229.38,314.62l-1.75-.48c0-21.82.09-43.64,0-65.45-.07-10.59-1.78-12.29-12.41-12.33-28.7-.11-57.4.08-86.1-.19-4.79,0-9.56-1.82-14.34-2.79,2.27.47,4.55,1.36,6.82,1.35q52.16,0,104.31-.28c17.87.22,35.75.59,53.62.57,6.43,0,9,2.21,8.23,8.9Q285,268.55,283,293.26c-.43,5.29-2.74,7.58-7.79,8.86C259.85,306,244.64,310.41,229.38,314.62Z"/><path class="cls-1" d="M227.62,184.39l-1.68.6c-18.72-.11-37.44-.46-56.16-.22-6.4.08-8.8-2.19-9.16-8.53-.79-13.77-2.15-27.51-3.46-43.41h68.78l1.68.61Z"/></svg>