<svg id="圖層_1" data-name="圖層 1" xmlns="http://www.w3.org/2000/svg" xmlns:xlink="http://www.w3.org/1999/xlink" viewBox="0 0 240.94 240.94"><defs><style>.cls-1{fill:none;}.cls-2{clip-path:url(#clip-path);}.cls-3{fill:#eddccf;}.cls-4{fill:#fff;}</style><clipPath id="clip-path"><rect class="cls-1" width="240.94" height="240.94"/></clipPath></defs><g class="cls-2"><path class="cls-3" d="M42.67,0H198.28a41.57,41.57,0,0,1,16.33,3.32,42.51,42.51,0,0,1,13.85,9.49A43.79,43.79,0,0,1,237.71,27a44.61,44.61,0,0,1,3.23,16.75V197.18a44.7,44.7,0,0,1-3.23,16.76,43.79,43.79,0,0,1-9.25,14.2,42.67,42.67,0,0,1-13.85,9.49,41.74,41.74,0,0,1-16.33,3.31H42.67a41.75,41.75,0,0,1-16.34-3.31,42.63,42.63,0,0,1-13.84-9.49,43.62,43.62,0,0,1-9.25-14.2A44.52,44.52,0,0,1,0,197.18V43.76A44.43,44.43,0,0,1,3.24,27a43.62,43.62,0,0,1,9.25-14.2A42.47,42.47,0,0,1,26.33,3.32,41.58,41.58,0,0,1,42.67,0Z"/><path class="cls-4" d="M116.76,144.57H79.41l-7.63,24.19a1.78,1.78,0,0,1-.68,1.1,1.75,1.75,0,0,1-1.23.35H51c-1.1,0-1.41-.62-1.1-1.86L82.22,72.9c.3-1,.6-2.16,1-3.4a37.4,37.4,0,0,0,.6-6.69,1,1,0,0,1,.18-.73,1,1,0,0,1,.62-.4h26c.81,0,1.21.31,1.31.82l36.64,106.06c.3,1.13,0,1.65-1,1.65h-21a1.52,1.52,0,0,1-1-.27,1.59,1.59,0,0,1-.6-.87ZM85.23,123.66h25.5c-.6-2.16-1.4-4.73-2.3-7.41s-1.81-5.77-2.72-8.85-1.9-6.29-2.91-9.48-1.9-6.18-2.71-9.16-1.5-5.56-2.21-8h-.2A129.27,129.27,0,0,1,94.27,94c-1.51,4.94-3,10.09-4.62,15.24-1.4,5.25-2.91,10.09-4.42,14.41Z"/><path class="cls-4" d="M170.47,79.29a12.35,12.35,0,0,1-8.94-3.61,13.59,13.59,0,0,1-3.41-9.47A12.27,12.27,0,0,1,161.73,57a12.73,12.73,0,0,1,8.94-3.6A11.87,11.87,0,0,1,179.8,57a13.2,13.2,0,0,1,3.32,9.17,13.42,13.42,0,0,1-.82,5.1,13.07,13.07,0,0,1-2.7,4.37,11.64,11.64,0,0,1-9.13,3.61Zm-11.24,89.37V89.38c0-1,.4-1.45,1.3-1.45h19.88c.9,0,1.3.52,1.3,1.45v79.28c0,1.13-.4,1.65-1.3,1.65H160.73a1.46,1.46,0,0,1-.62-.09,1.35,1.35,0,0,1-.52-.36,1.49,1.49,0,0,1-.32-.56,1.38,1.38,0,0,1,0-.64Z"/></g></svg>