<svg id="圖層_1" data-name="圖層 1" xmlns="http://www.w3.org/2000/svg" viewBox="0 0 453.54 453.54"><defs><style>.cls-1{fill:#e6c463;}.cls-2{fill:#eaeaea;}</style></defs><path class="cls-1" d="M227.23,0H414.36c11.26,0,11.42,0,10.49,10.91Q418,91.28,410.92,171.6c-4.32,49.92-8.54,99.84-12.95,149.75-2.39,27-5.25,54-7.49,81.06-.51,6.22-4.46,7.85-9,9.18-20.43,6.05-40.87,12.07-61.39,17.81-28,7.85-56.05,15.73-84.25,22.9a40.46,40.46,0,0,1-19.71.05c-47.91-13-95.62-26.66-143.51-39.7-7.36-2-9.49-5.45-10.08-12.91-3-38-6.82-75.89-10.2-113.84-3.39-38.21-6.54-76.44-9.91-114.66-3.35-38-6.9-75.89-10.25-113.84-1.38-15.6-2.71-31.2-3.67-46.83C27.91.1,28.21,0,38.53,0Q132.88,0,227.23,0ZM221.8,313.52c-15.55-4-31.17-7.85-46.6-12.32-2-.59-4.15-4.31-4.54-6.84-1.35-8.74-2.07-17.58-2.8-26.41-.41-4.94-2.9-6.64-7.64-6.56-11.16.17-22.34.44-33.47-.1-7.78-.37-10.15,2.83-9.38,10.1,2.13,20.2,4.25,40.41,5.95,60.65.51,6,3.39,8.6,8.8,10.09,31.51,8.68,63,17.56,94.46,26.38,0,14.37.13,28.73,0,43.1,0,5.93,1.89,8.07,8,6.2,9.43-2.87,19.06-5.09,28.57-7.73q41.67-11.61,83.32-23.32c6.64-1.86,11.85-4.76,12.42-12.85.88-12.48,2.26-24.92,3.42-37.38q3.42-37,6.84-74,3.57-38.52,7.18-77.06,2.89-31.51,5.7-63.06c2.3-26.22,4.71-52.43,6.67-78.68.77-10.27-.38-11-10.84-11q-66.25,0-132.5,0c-20.92,0-18.64-2.35-18.75,18.83-28.25.51-56.5,1.17-84.75,1.41-6,0-9,1.38-9.44,8-1.16,16.36-2.95,32.68-4.45,49-3.51,38.39-7.06,76.77-10.44,115.17-.93,10.64-.21,11.22,10.17,11.25q49.44.15,98.86.26,0,33.84,0,67.68C226.58,308.18,227.26,312.51,221.8,313.52Z"/><path class="cls-1" d="M226.63,51.6c.11-21.18-2.17-18.8,18.75-18.83q66.26-.12,132.5,0c10.46,0,11.61.75,10.84,11-2,26.25-4.37,52.46-6.67,78.68q-2.78,31.54-5.7,63.06-3.56,38.53-7.18,77.06-3.44,37-6.84,74c-1.16,12.46-2.54,24.9-3.42,37.38-.57,8.09-5.78,11-12.42,12.85q-41.67,11.65-83.32,23.32c-9.51,2.64-19.14,4.86-28.57,7.73-6.12,1.87-8-.27-8-6.2.12-14.37,0-28.73,0-43.1l1.84-1.47c30.25-8.3,60.45-16.76,90.78-24.78,7.23-1.91,9.89-5.72,10.48-13.07,2.08-25.95,4.81-51.86,7.22-77.79,1.77-18.93,3.43-37.87,5.1-56.81.39-4.43.38-8.7-6-8.33-3.83-.43-7.66-1.19-11.5-1.21-32.64-.16-65.29-.18-97.94-.24q0-39.09,0-78.18l9.38-.31c14,.63,28,1.33,42,1.84,6.19.23,9.36,2.74,9.75,9.42.64,11.18,2.34,22.29,3,33.47.35,6.51,3.05,9.6,9.41,9.65,10.12.09,20.24.26,30.35.29,12.26,0,12.55-.38,11.42-13-2.59-28.81-5.25-57.62-7.63-86.44-.51-6.1-2.78-8.85-9.13-8.75-16.6.25-33.21.1-49.81.1a68.58,68.58,0,0,0-8.37-1.12C253.45,51.66,240,51.66,226.63,51.6Z"/><path class="cls-2" d="M226.63,51.6c13.41.06,26.82.06,40.23.23A68.58,68.58,0,0,1,275.23,53c-13.47.09-26.94.34-40.4.17-6-.07-8.41,2.27-8.27,8.31.25,10.66.55,21.37-.11,32-.46,7.58,2,11.79,9.49,12.88l-9.38.31c-12.45,0-24.91.17-37.36,0-7.58-.1-10.35,3.68-10.93,10.94q-2.39,30-5.66,59.91c-.59,5.49,1,7.76,6.51,7.68,15.83-.23,31.66-.26,47.48-.37,32.65.06,65.3.08,97.94.24,3.84,0,7.67.78,11.5,1.21-3.89.07-7.78.19-11.67.19-30.09,0-60.17.13-90.26-.11-6.68-.05-9.37,2.29-9.13,9.11.35,10.42.27,20.86,0,31.28-.14,6,2.28,8.42,8.28,8.33,14.78-.22,29.57-.16,44.35,0,3.27,0,6.53,1.06,9.79,1.63l-60.85,0q-49.43-.12-98.86-.26c-10.38,0-11.1-.61-10.17-11.25,3.38-38.4,6.93-76.78,10.44-115.17,1.5-16.34,3.29-32.66,4.45-49,.47-6.6,3.48-7.94,9.44-8C170.13,52.77,198.38,52.11,226.63,51.6Z"/><path class="cls-2" d="M228.42,367.05c-.62.48-1.23,1-1.84,1.46-31.48-8.82-63-17.7-94.46-26.38-5.41-1.49-8.29-4.05-8.8-10.09-1.7-20.24-3.82-40.45-5.95-60.65-.77-7.27,1.6-10.47,9.38-10.1,11.13.54,22.31.27,33.47.1,4.74-.08,7.23,1.62,7.64,6.56.73,8.83,1.45,17.67,2.8,26.41.39,2.53,2.49,6.25,4.54,6.84,15.43,4.47,31.05,8.29,46.6,12.32l4.82,1.61c-.34,15.2-.78,30.39-.87,45.58C225.73,362.82,227.48,364.93,228.42,367.05Z"/><path class="cls-1" d="M226.62,315.13l-4.82-1.61c5.46-1,4.78-5.34,4.79-9.15q0-33.84,0-67.68l60.85,0c-1.66,17.6-3.45,35.19-4.91,52.8-.6,7.23-3,11.83-10.88,13.64C256.51,306.59,241.61,311.08,226.62,315.13Z"/><path class="cls-1" d="M226.6,184.81c-15.82.11-31.65.14-47.48.37-5.54.08-7.1-2.19-6.51-7.68q3.22-29.92,5.66-59.91c.58-7.26,3.35-11,10.93-10.94,12.45.15,24.91,0,37.36,0Q226.58,145.72,226.6,184.81Z"/></svg>