<svg id="圖層_1" data-name="圖層 1" xmlns="http://www.w3.org/2000/svg" xmlns:xlink="http://www.w3.org/1999/xlink" viewBox="0 0 240.94 240.94"><defs><style>.cls-1{fill:none;}.cls-2{clip-path:url(#clip-path);}.cls-3{fill:#eddccf;}.cls-4{fill:#fff;}</style><clipPath id="clip-path"><rect class="cls-1" width="240.94" height="240.94"/></clipPath></defs><g class="cls-2"><path class="cls-3" d="M42.67,0H198.28a41.57,41.57,0,0,1,16.33,3.32,42.51,42.51,0,0,1,13.85,9.49A43.79,43.79,0,0,1,237.71,27a44.61,44.61,0,0,1,3.23,16.75V197.18a44.7,44.7,0,0,1-3.23,16.76,43.79,43.79,0,0,1-9.25,14.2,42.67,42.67,0,0,1-13.85,9.49,41.74,41.74,0,0,1-16.33,3.31H42.67a41.75,41.75,0,0,1-16.34-3.31,42.63,42.63,0,0,1-13.84-9.49,43.62,43.62,0,0,1-9.25-14.2A44.52,44.52,0,0,1,0,197.18V43.76A44.43,44.43,0,0,1,3.24,27a43.62,43.62,0,0,1,9.25-14.2A42.47,42.47,0,0,1,26.33,3.32,41.58,41.58,0,0,1,42.67,0Z"/><path class="cls-4" d="M54.21,169V63c0-.72.3-1.14,1-1.14,1.7,0,3.31,0,5.62-.1s4.92-.1,7.63-.21,5.62-.1,8.73-.2,6.13-.1,9.14-.1c8.23,0,15.06,1,20.68,3.19a35.69,35.69,0,0,1,13.45,8.44,32.76,32.76,0,0,1,7.33,11.74A40.36,40.36,0,0,1,130.11,98q0,13.27-6,21.93a34.54,34.54,0,0,1-16.17,12.56c-6.82,2.57-14.35,3.5-22.59,3.5-2.4,0-4,0-5-.1s-2.4-.11-4.31-.11v33.06a1.39,1.39,0,0,1,0,.5,1.33,1.33,0,0,1-.23.46,1.46,1.46,0,0,1-.37.33,1.34,1.34,0,0,1-.48.15H55.42C54.61,170.31,54.21,169.9,54.21,169ZM76.1,81.76v34.59c1.4.11,2.71.21,3.91.21h5.32a36.88,36.88,0,0,0,11.55-1.85,17.23,17.23,0,0,0,8.23-5.46c2.11-2.58,3.11-6.08,3.11-10.61a17.26,17.26,0,0,0-2.3-9.16,14.7,14.7,0,0,0-7-5.87A28.8,28.8,0,0,0,87,81.55c-2.61,0-4.92,0-6.83.1a22.57,22.57,0,0,0-4.11.11Z"/><path class="cls-4" d="M192.76,110.07a35.5,35.5,0,0,0-9.64-3.5,52,52,0,0,0-11.25-1.34,19.76,19.76,0,0,0-6,.72,5.14,5.14,0,0,0-3.11,2.06,5.47,5.47,0,0,0-.8,2.78,4.58,4.58,0,0,0,1,2.68,11.28,11.28,0,0,0,3.41,2.78c2.31,1.24,4.72,2.37,7.13,3.4a71.53,71.53,0,0,1,15.46,7.52,23.65,23.65,0,0,1,7.93,8.54,22.62,22.62,0,0,1,2.31,10.61A24.42,24.42,0,0,1,195.27,160,25.29,25.29,0,0,1,184,169.18c-4.92,2.16-10.94,3.29-18.17,3.29a67.29,67.29,0,0,1-13.65-1.34A39.77,39.77,0,0,1,142,167.84a2,2,0,0,1-.84-.81,2.1,2.1,0,0,1-.27-1.15V148a1.13,1.13,0,0,1,.1-.51,1.12,1.12,0,0,1,.3-.41.72.72,0,0,1,.47-.1.78.78,0,0,1,.44.2,42.4,42.4,0,0,0,12.45,5.05,45.54,45.54,0,0,0,11.84,1.54c3.82,0,6.53-.51,8.34-1.44a4.68,4.68,0,0,0,2-1.76,4.91,4.91,0,0,0,.75-2.57c0-1.44-.81-2.78-2.41-4.11s-4.92-2.89-9.84-4.84A61,61,0,0,1,151,131.59a26.56,26.56,0,0,1-7.63-8.75,22.66,22.66,0,0,1-2.31-10.5,24.05,24.05,0,0,1,14-21.93c4.72-2.48,10.64-3.61,17.77-3.61a83.85,83.85,0,0,1,12.45.93,34.66,34.66,0,0,1,8.63,2.37,1.77,1.77,0,0,1,1,.92,4.79,4.79,0,0,1,.2,1.24V109a1.29,1.29,0,0,1-.12.58,1.27,1.27,0,0,1-.38.45A2.54,2.54,0,0,1,192.76,110.07Z"/></g></svg>