<svg id="圖層_1" data-name="圖層 1" xmlns="http://www.w3.org/2000/svg" viewBox="0 0 240.94 240.94"><defs><style>.cls-1{fill:#eddccf;}.cls-2{fill:#fefefe;}</style></defs><path class="cls-1" d="M42.67,0H198.28a41.57,41.57,0,0,1,16.33,3.32,42.51,42.51,0,0,1,13.85,9.49A43.79,43.79,0,0,1,237.71,27a44.61,44.61,0,0,1,3.23,16.75V197.18a44.7,44.7,0,0,1-3.23,16.76,43.79,43.79,0,0,1-9.25,14.2,42.67,42.67,0,0,1-13.85,9.49,41.74,41.74,0,0,1-16.33,3.31H42.67a41.75,41.75,0,0,1-16.34-3.31,42.63,42.63,0,0,1-13.84-9.49,43.62,43.62,0,0,1-9.25-14.2A44.52,44.52,0,0,1,0,197.18V43.76A44.43,44.43,0,0,1,3.24,27a43.62,43.62,0,0,1,9.25-14.2A42.47,42.47,0,0,1,26.33,3.32,41.58,41.58,0,0,1,42.67,0Z"/><path class="cls-2" d="M112.15,103.46c-29.59,8.82-81.84,29-84.35,110.88,9.44-44.1,32.73-50.4,75.53-60.48s66.1-21.42,91.91-52.29,17-75,17-75c0,23.94-17,39.69-33.36,51S141.73,94.64,112.15,103.46Z"/><path class="cls-2" d="M28.16,207.1q-.26,3.54-.36,7.24a31.66,31.66,0,0,1,.36-7.24c5.28-75.86,55.29-95.08,84-103.64C141.73,94.64,162.5,89,178.87,77.64s33.36-27.09,33.36-51c0,0,8.81,44.1-17,75s-47.21,18.27-90,28.35C66.15,139.12,32.33,180.34,28.16,207.1Z"/><path class="cls-2" d="M109.63,113.54c-58.41,26-82.46,75.18-81.83,100.8,1.88-24.57,23.92-56.07,50.35-63s77.43,0,107-30.24,27.07-94.49,27.07-94.49C212.23,51.82,172,85.83,109.63,113.54Z"/><path class="cls-2" d="M109.63,113.54c-58.41,26-82.46,75.18-81.83,100.8,1.88-24.57,26.44-72.45,66.72-80S160,127.4,187.68,97.79s24.55-71.18,24.55-71.18C212.23,51.82,172,85.83,109.63,113.54Z"/><path class="cls-2" d="M122.85,109.76c-73.65,13.86-95.68,79-95,104.58,1.89-24.57,23.29-52.92,51-68,40.92-20.79,83.72-9.45,113.31-39.69s20.14-80,20.14-80c0,23.94-8.81,46.62-24.55,59.85S140.47,106.4,122.85,109.76Z"/></svg>